<?xml version="1.0" encoding="utf-8"?>
<!-- Generator: Adobe Illustrator 25.2.1, SVG Export Plug-In . SVG Version: 6.00 Build 0)  -->
<svg version="1.1" id="Layer_1" xmlns="http://www.w3.org/2000/svg" xmlns:xlink="http://www.w3.org/1999/xlink" x="0px" y="0px"
	 width="512px" height="512px" viewBox="0 0 512 512" style="enable-background:new 0 0 512 512;" xml:space="preserve">
<style type="text/css">
	.st0{fill:#010101;}
</style>
<path class="st0" d="M257.7,0.1c71,0,142,0,213.1,0c7.5,0,14.6,1.5,21.2,5.2c12.9,7.3,19.3,18.5,20,33.1c0.1,1.9,0,3.8,0,5.8
	c0,141.2,0,282.4,0,423.5c0,15.4-6.2,27.9-18.7,37.1c-6.5,4.8-14,7-22.1,7.2c-0.6,0-1.3,0-1.9,0c-141.3,0-282.6-0.1-423.9,0.1
	c-22.1,0-40.2-16.2-44.3-35.5c-0.7-3.3-0.9-6.7-0.9-10.2c0-65.9,0-131.8,0-197.7c0-75.4,0.2-150.8-0.1-226.2
	c-0.1-24,17.7-38.8,36-41.7C39,0.2,42,0.1,45,0.1C115.9,0.1,186.8,0.1,257.7,0.1z M276,230c0-1.4,0-2.4,0-3.4c0-8.5,0-17.1,0-25.6
	c0-2.2-0.1-2.2-2.3-2.3c-0.4,0-0.9,0-1.3,0c-22,0-43.9,0-65.9,0c-4.1,0-3.7-0.6-3.7,3.8c0,73.5,0,146.9,0,220.4c0,0.7,0,1.5,0,2.2
	c-0.1,1.1,0.4,1.5,1.5,1.4c0.6,0,1.3,0,1.9,0c22.1,0,44.1,0,66.2,0c3.5,0,3.5,0,3.5-3.6c0-41.3,0-82.5,0-123.8
	c0-3.4,0.1-6.8,0.4-10.2c1.8-21.6,20-38,41.6-37.2c14.3,0.5,24.7,7.2,30.4,20.6c0.7,1.6,1.3,3.2,1.8,4.8c2.6,8.2,3.3,16.7,3.3,25.2
	c0,40.2,0,80.4,0,120.6c0,3.9-0.6,3.6,3.6,3.6c22.1,0,44.1,0,66.2,0c4.2,0,3.6,0.3,3.6-3.6c0-41.1,0-82.1,0-123.2
	c0-8.5-0.2-17.1-1.2-25.5c-1.5-13-4.5-25.6-10.3-37.4c-9.1-18.7-23.3-31.9-43-38.7c-13-4.5-26.4-5.7-40-4.3
	c-12.7,1.3-24.3,5.4-34.6,13c-7.6,5.6-13.6,12.5-19.1,20.1C278,227.9,277.5,229,276,230z M158.8,313c0-36.8,0-73.6,0-110.4
	c0-4.6,0.6-4-4.1-4c-21.8,0-43.5,0-65.3,0c-4.3,0-3.8-0.5-3.8,4c0,73.3,0,146.5,0,219.8c0,0.6,0.1,1.3,0,1.9
	c-0.2,1.6,0.3,2.5,2.1,2.2c0.5-0.1,1.1,0,1.6,0c22,0,43.9,0,65.9,0c4.3,0,3.6,0.4,3.6-3.8C158.8,386.2,158.8,349.6,158.8,313z
	 M85.5,123.9c0.1,3.9,0.3,7.1,1,10.2c3.2,13.4,10.9,22.9,24,27.7c7.3,2.6,14.8,2.9,22.4,1.5c13.6-2.6,23.4-10.1,28.4-23.1
	c4.6-11.9,3.7-23.6-1.9-35c-3.3-6.7-8.3-12-15-15.2c-13.9-6.7-28-6.5-41.3,1.5C90.8,98.8,85.9,110.6,85.5,123.9z"/>
</svg>
